<?xml version="1.0" encoding="UTF-8"?>
<svg version="1.1" xmlns="http://www.w3.org/2000/svg" width="2940" height="1500">
<path d="M0 0 C7.66837567 -0.02094549 15.33664831 -0.04098358 23.00502777 -0.05175018 C26.57571125 -0.0570399 30.14637115 -0.06411339 33.71704102 -0.07543945 C37.81006097 -0.08834176 41.9030558 -0.09322906 45.99609375 -0.09765625 C47.92418129 -0.10539818 47.92418129 -0.10539818 49.89122009 -0.11329651 C51.66294334 -0.11340981 51.66294334 -0.11340981 53.47045898 -0.11352539 C55.03932106 -0.11685631 55.03932106 -0.11685631 56.63987732 -0.12025452 C59 0 59 0 60 1 C60.10012401 3.20650656 60.1308118 5.41622386 60.1328125 7.625 C60.13376923 8.28709473 60.13472595 8.94918945 60.13571167 9.63134766 C60.13639326 11.03352961 60.13454042 12.4357147 60.13037109 13.83789062 C60.12502246 15.99095713 60.1303167 18.14381502 60.13671875 20.296875 C60.13605796 21.65625046 60.13477679 23.0156258 60.1328125 24.375 C60.13112061 26.24285156 60.13112061 26.24285156 60.12939453 28.1484375 C60 31 60 31 59 32 C57.00035018 32.08758003 54.9976389 32.10696576 52.99609375 32.09765625 C51.90224365 32.09515869 50.80839355 32.09266113 49.68139648 32.09008789 C47.58066772 32.07643188 47.58066772 32.07643188 45.4375 32.0625 C41.003125 32.041875 36.56875 32.02125 32 32 C32 41.24 32 50.48 32 60 C22.76 60 13.52 60 4 60 C4 69.24 4 78.48 4 88 C-5.57 88 -15.14 88 -25 88 C-25 97.24 -25 106.48 -25 116 C-33.91 116 -42.82 116 -52 116 C-52 134.48 -52 152.96 -52 172 C-61.24 172 -70.48 172 -80 172 C-80 181.24 -80 190.48 -80 200 C-89.57 200 -99.14 200 -109 200 C-109 218.48 -109 236.96 -109 256 C-117.91 256 -126.82 256 -136 256 C-136 265.24 -136 274.48 -136 284 C-145.24 284 -154.48 284 -164 284 C-164 302.48 -164 320.96 -164 340 C-173.57 340 -183.14 340 -193 340 C-193 349.24 -193 358.48 -193 368 C-201.91 368 -210.82 368 -220 368 C-220 386.48 -220 404.96 -220 424 C-229.24 424 -238.48 424 -248 424 C-248 433.24 -248 442.48 -248 452 C-257.57 452 -267.14 452 -277 452 C-277 470.48 -277 488.96 -277 508 C-285.91 508 -294.82 508 -304 508 C-303.96040599 516.84072863 -303.96040599 516.84072863 -303.90991211 525.68139648 C-303.90741455 526.77524658 -303.90491699 527.86909668 -303.90234375 528.99609375 C-303.89710693 530.12200928 -303.89187012 531.2479248 -303.88647461 532.40795898 C-304 535 -304 535 -305 536 C-313.91 536 -322.82 536 -332 536 C-332 554.48 -332 572.96 -332 592 C-341.57 592 -351.14 592 -361 592 C-361 601.24 -361 610.48 -361 620 C-370.24 620 -379.48 620 -389 620 C-389 638.48 -389 656.96 -389 676 C-397.91 676 -406.82 676 -416 676 C-416 694.48 -416 712.96 -416 732 C-425.57 732 -435.14 732 -445 732 C-445 741.24 -445 750.48 -445 760 C-454.24 760 -463.48 760 -473 760 C-473 778.48 -473 796.96 -473 816 C-481.91 816 -490.82 816 -500 816 C-500 834.48 -500 852.96 -500 872 C-509.57 872 -519.14 872 -529 872 C-529 881.24 -529 890.48 -529 900 C-538.24 900 -547.48 900 -557 900 C-557 917.16 -557 934.32 -557 952 C-549.08 952 -541.16 952 -533 952 C-533 942.76 -533 933.52 -533 924 C-523.76 924 -514.52 924 -505 924 C-505 914.76 -505 905.52 -505 896 C-495.76 896 -486.52 896 -477 896 C-477 886.76 -477 877.52 -477 868 C-467.76 868 -458.52 868 -449 868 C-449 858.76 -449 849.52 -449 840 C-439.76 840 -430.52 840 -421 840 C-421 830.76 -421 821.52 -421 812 C-411.76 812 -402.52 812 -393 812 C-393 793.52 -393 775.04 -393 756 C-383.76 756 -374.52 756 -365 756 C-365 746.76 -365 737.52 -365 728 C-355.76 728 -346.52 728 -337 728 C-337 718.76 -337 709.52 -337 700 C-327.76 700 -318.52 700 -309 700 C-309 690.76 -309 681.52 -309 672 C-299.76 672 -290.52 672 -281 672 C-281 662.76 -281 653.52 -281 644 C-271.76 644 -262.52 644 -253 644 C-253.03959401 635.15927137 -253.03959401 635.15927137 -253.09008789 626.31860352 C-253.09258545 625.22475342 -253.09508301 624.13090332 -253.09765625 623.00390625 C-253.10289307 621.87799072 -253.10812988 620.7520752 -253.11352539 619.59204102 C-253 617 -253 617 -252 616 C-250.00035018 615.91241997 -247.9976389 615.89303424 -245.99609375 615.90234375 C-244.90224365 615.90484131 -243.80839355 615.90733887 -242.68139648 615.90991211 C-241.28091064 615.91901611 -239.8804248 615.92812012 -238.4375 615.9375 C-234.003125 615.958125 -229.56875 615.97875 -225 616 C-225 606.76 -225 597.52 -225 588 C-215.76 588 -206.52 588 -197 588 C-197 578.76 -197 569.52 -197 560 C-187.76 560 -178.52 560 -169 560 C-169.03959401 551.15927137 -169.03959401 551.15927137 -169.09008789 542.31860352 C-169.09258545 541.22475342 -169.09508301 540.13090332 -169.09765625 539.00390625 C-169.10289307 537.87799072 -169.10812988 536.7520752 -169.11352539 535.59204102 C-169 533 -169 533 -168 532 C-166.00035018 531.91241997 -163.9976389 531.89303424 -161.99609375 531.90234375 C-160.90224365 531.90484131 -159.80839355 531.90733887 -158.68139648 531.90991211 C-157.28091064 531.91901611 -155.8804248 531.92812012 -154.4375 531.9375 C-150.003125 531.958125 -145.56875 531.97875 -141 532 C-141 522.76 -141 513.52 -141 504 C-131.76 504 -122.52 504 -113 504 C-113 494.76 -113 485.52 -113 476 C-103.43 476 -93.86 476 -84 476 C-84 466.76 -84 457.52 -84 448 C-75.09 448 -66.18 448 -57 448 C-57 438.76 -57 429.52 -57 420 C-38.19 420 -19.38 420 0 420 C0 410.76 0 401.52 0 392 C8.91 392 17.82 392 27 392 C27 382.76 27 373.52 27 364 C36.24 364 45.48 364 55 364 C55 354.76 55 345.52 55 336 C64.57 336 74.14 336 84 336 C84 326.76 84 317.52 84 308 C92.91 308 101.82 308 111 308 C110.96040599 299.15927137 110.96040599 299.15927137 110.90991211 290.31860352 C110.90741455 289.22475342 110.90491699 288.13090332 110.90234375 287.00390625 C110.89710693 285.87799072 110.89187012 284.7520752 110.88647461 283.59204102 C111 281 111 281 112 280 C113.99964982 279.91241997 116.0023611 279.89303424 118.00390625 279.90234375 C119.09775635 279.90484131 120.19160645 279.90733887 121.31860352 279.90991211 C122.71908936 279.91901611 124.1195752 279.92812012 125.5625 279.9375 C129.996875 279.958125 134.43125 279.97875 139 280 C139 270.76 139 261.52 139 252 C148.57 252 158.14 252 168 252 C168 242.76 168 233.52 168 224 C177.24 224 186.48 224 196 224 C196 214.76 196 205.52 196 196 C204.91 196 213.82 196 223 196 C223 186.76 223 177.52 223 168 C232.57 168 242.14 168 252 168 C252 158.76 252 149.52 252 140 C270.15 140 288.3 140 307 140 C307 130.76 307 121.52 307 112 C316.57 112 326.14 112 336 112 C336 102.76 336 93.52 336 84 C345.24 84 354.48 84 364 84 C364 74.76 364 65.52 364 56 C382.48 56 400.96 56 420 56 C420 46.76 420 37.52 420 28 C438.15 28 456.3 28 475 28 C475 19.09 475 10.18 475 1 C476 0 476 0 478.36012268 -0.12025452 C479.40603073 -0.11803391 480.45193878 -0.11581329 481.52954102 -0.11352539 C482.71068985 -0.11344986 483.89183868 -0.11337433 485.10877991 -0.11329651 C486.3941716 -0.10813522 487.67956329 -0.10297394 489.00390625 -0.09765625 C490.31205795 -0.0962413 491.62020966 -0.09482635 492.96800232 -0.09336853 C496.45162859 -0.0895441 499.93521339 -0.07971446 503.41882324 -0.06866455 C506.97126698 -0.05844882 510.52371759 -0.05381586 514.07617188 -0.04882812 C521.05081791 -0.03862232 528.02534997 -0.01905064 535 0 C535 10.56 535 21.12 535 32 C526.09 32 517.18 32 508 32 C508 41.24 508 50.48 508 60 C498.76 60 489.52 60 480 60 C480 69.24 480 78.48 480 88 C470.76 88 461.52 88 452 88 C452 97.24 452 106.48 452 116 C442.76 116 433.52 116 424 116 C424 125.24 424 134.48 424 144 C414.76 144 405.52 144 396 144 C396 153.24 396 162.48 396 172 C386.76 172 377.52 172 368 172 C368 181.24 368 190.48 368 200 C358.76 200 349.52 200 340 200 C340 209.24 340 218.48 340 228 C330.76 228 321.52 228 312 228 C312 237.24 312 246.48 312 256 C302.76 256 293.52 256 284 256 C284 265.24 284 274.48 284 284 C274.76 284 265.52 284 256 284 C256 302.48 256 320.96 256 340 C246.76 340 237.52 340 228 340 C228 349.24 228 358.48 228 368 C218.76 368 209.52 368 200 368 C200 377.24 200 386.48 200 396 C190.76 396 181.52 396 172 396 C172 405.24 172 414.48 172 424 C162.76 424 153.52 424 144 424 C144 442.48 144 460.96 144 480 C134.76 480 125.52 480 116 480 C116 489.24 116 498.48 116 508 C106.76 508 97.52 508 88 508 C88 517.24 88 526.48 88 536 C78.76 536 69.52 536 60 536 C60.01160156 539.95871094 60.02320313 543.91742187 60.03515625 547.99609375 C60.04294533 551.81192952 60.04902294 555.62776442 60.05493164 559.44360352 C60.05997383 562.10441481 60.06680736 564.76522332 60.07543945 567.42602539 C60.08751009 571.24105516 60.09322929 575.05604844 60.09765625 578.87109375 C60.10281754 580.06899033 60.10797882 581.2668869 60.11329651 582.50108337 C60.11337204 583.6021492 60.11344757 584.70321503 60.11352539 585.83764648 C60.115746 586.81249496 60.11796661 587.78734344 60.12025452 588.79173279 C60 591 60 591 59 592 C57.00035018 592.08758003 54.9976389 592.10696576 52.99609375 592.09765625 C51.90224365 592.09515869 50.80839355 592.09266113 49.68139648 592.09008789 C47.58066772 592.07643188 47.58066772 592.07643188 45.4375 592.0625 C41.003125 592.041875 36.56875 592.02125 32 592 C32 601.24 32 610.48 32 620 C22.76 620 13.52 620 4 620 C4 638.48 4 656.96 4 676 C-5.24 676 -14.48 676 -24 676 C-23.96040599 684.84072863 -23.96040599 684.84072863 -23.90991211 693.68139648 C-23.90741455 694.77524658 -23.90491699 695.86909668 -23.90234375 696.99609375 C-23.89710693 698.12200928 -23.89187012 699.2479248 -23.88647461 700.40795898 C-24 703 -24 703 -25 704 C-26.99964982 704.08758003 -29.0023611 704.10696576 -31.00390625 704.09765625 C-32.09775635 704.09515869 -33.19160645 704.09266113 -34.31860352 704.09008789 C-36.41933228 704.07643188 -36.41933228 704.07643188 -38.5625 704.0625 C-42.996875 704.041875 -47.43125 704.02125 -52 704 C-52 713.24 -52 722.48 -52 732 C-61.24 732 -70.48 732 -80 732 C-80 750.48 -80 768.96 -80 788 C-89.57 788 -99.14 788 -109 788 C-109 797.24 -109 806.48 -109 816 C-117.91 816 -126.82 816 -136 816 C-136 834.48 -136 852.96 -136 872 C-145.24 872 -154.48 872 -164 872 C-164 881.24 -164 890.48 -164 900 C-173.57 900 -183.14 900 -193 900 C-193 909.24 -193 918.48 -193 928 C-201.91 928 -210.82 928 -220 928 C-220 946.48 -220 964.96 -220 984 C-229.24 984 -238.48 984 -248 984 C-248 993.24 -248 1002.48 -248 1012 C-257.57 1012 -267.14 1012 -277 1012 C-277 1030.48 -277 1048.96 -277 1068 C-285.91 1068 -294.82 1068 -304 1068 C-303.96040599 1076.84072863 -303.96040599 1076.84072863 -303.90991211 1085.68139648 C-303.90741455 1086.77524658 -303.90491699 1087.86909668 -303.90234375 1088.99609375 C-303.89710693 1090.12200928 -303.89187012 1091.2479248 -303.88647461 1092.40795898 C-304 1095 -304 1095 -305 1096 C-306.99964982 1096.08758003 -309.0023611 1096.10696576 -311.00390625 1096.09765625 C-312.09775635 1096.09515869 -313.19160645 1096.09266113 -314.31860352 1096.09008789 C-316.41933228 1096.07643188 -316.41933228 1096.07643188 -318.5625 1096.0625 C-322.996875 1096.041875 -327.43125 1096.02125 -332 1096 C-332 1113.16 -332 1130.32 -332 1148 C-287.45 1148 -242.9 1148 -197 1148 C-197 1138.76 -197 1129.52 -197 1120 C-178.52 1120 -160.04 1120 -141 1120 C-141 1110.76 -141 1101.52 -141 1092 C-131.76 1092 -122.52 1092 -113 1092 C-113 1082.76 -113 1073.52 -113 1064 C-92.87 1064 -72.74 1064 -52 1064 C-52 1074.56 -52 1085.12 -52 1096 C-61.24 1096 -70.48 1096 -80 1096 C-80 1105.24 -80 1114.48 -80 1124 C-89.57 1124 -99.14 1124 -109 1124 C-109 1133.24 -109 1142.48 -109 1152 C-127.15 1152 -145.3 1152 -164 1152 C-164 1161.24 -164 1170.48 -164 1180 C-201.29 1180 -238.58 1180 -277 1180 C-277 1189.24 -277 1198.48 -277 1208 C-306.04 1208 -335.08 1208 -365 1208 C-365 1198.76 -365 1189.52 -365 1180 C-374.24 1180 -383.48 1180 -393 1180 C-393 1170.76 -393 1161.52 -393 1152 C-402.24 1152 -411.48 1152 -421 1152 C-421.02255024 1140.67388015 -421.04091463 1129.34777509 -421.05181217 1118.02163792 C-421.05704119 1112.76303336 -421.06413918 1107.5044449 -421.07543945 1102.24584961 C-421.08626766 1097.17546873 -421.09227669 1092.10510338 -421.09487724 1087.03471184 C-421.09673161 1085.09573052 -421.10035245 1083.15675009 -421.10573006 1081.21777534 C-421.1129396 1078.5117824 -421.11399098 1075.80585444 -421.11352539 1073.09985352 C-421.11712067 1072.28993454 -421.12071594 1071.48001556 -421.12442017 1070.64555359 C-421.11405216 1065.11405216 -421.11405216 1065.11405216 -420 1064 C-411.09 1064 -402.18 1064 -393 1064 C-393 1045.52 -393 1027.04 -393 1008 C-383.76 1008 -374.52 1008 -365 1008 C-365 989.52 -365 971.04 -365 952 C-355.76 952 -346.52 952 -337 952 C-337 933.52 -337 915.04 -337 896 C-327.76 896 -318.52 896 -309 896 C-309 886.76 -309 877.52 -309 868 C-299.76 868 -290.52 868 -281 868 C-281 849.52 -281 831.04 -281 812 C-271.76 812 -262.52 812 -253 812 C-253.03959401 803.15927137 -253.03959401 803.15927137 -253.09008789 794.31860352 C-253.09258545 793.22475342 -253.09508301 792.13090332 -253.09765625 791.00390625 C-253.10289307 789.87799072 -253.10812988 788.7520752 -253.11352539 787.59204102 C-253 785 -253 785 -252 784 C-250.00035018 783.91241997 -247.9976389 783.89303424 -245.99609375 783.90234375 C-244.90224365 783.90484131 -243.80839355 783.90733887 -242.68139648 783.90991211 C-241.28091064 783.91901611 -239.8804248 783.92812012 -238.4375 783.9375 C-234.003125 783.958125 -229.56875 783.97875 -225 784 C-225 774.76 -225 765.52 -225 756 C-215.76 756 -206.52 756 -197 756 C-197 737.52 -197 719.04 -197 700 C-187.76 700 -178.52 700 -169 700 C-169.03959401 691.15927137 -169.03959401 691.15927137 -169.09008789 682.31860352 C-169.09258545 681.22475342 -169.09508301 680.13090332 -169.09765625 679.00390625 C-169.10289307 677.87799072 -169.10812988 676.7520752 -169.11352539 675.59204102 C-169 673 -169 673 -168 672 C-166.00035018 671.91241997 -163.9976389 671.89303424 -161.99609375 671.90234375 C-160.90224365 671.90484131 -159.80839355 671.90733887 -158.68139648 671.90991211 C-157.28091064 671.91901611 -155.8804248 671.92812012 -154.4375 671.9375 C-150.003125 671.958125 -145.56875 671.97875 -141 672 C-141 662.76 -141 653.52 -141 644 C-131.76 644 -122.52 644 -113 644 C-113 634.76 -113 625.52 -113 616 C-103.43 616 -93.86 616 -84 616 C-84 606.76 -84 597.52 -84 588 C-75.09 588 -66.18 588 -57 588 C-57 570.84 -57 553.68 -57 536 C-64.59 536 -72.18 536 -80 536 C-80 545.24 -80 554.48 -80 564 C-89.57 564 -99.14 564 -109 564 C-109 573.24 -109 582.48 -109 592 C-117.91 592 -126.82 592 -136 592 C-136 601.24 -136 610.48 -136 620 C-145.24 620 -154.48 620 -164 620 C-164 629.24 -164 638.48 -164 648 C-173.57 648 -183.14 648 -193 648 C-193 657.24 -193 666.48 -193 676 C-201.91 676 -210.82 676 -220 676 C-220 685.24 -220 694.48 -220 704 C-229.24 704 -238.48 704 -248 704 C-248 713.24 -248 722.48 -248 732 C-257.57 732 -267.14 732 -277 732 C-277 741.24 -277 750.48 -277 760 C-285.91 760 -294.82 760 -304 760 C-303.96040599 768.84072863 -303.96040599 768.84072863 -303.90991211 777.68139648 C-303.90741455 778.77524658 -303.90491699 779.86909668 -303.90234375 780.99609375 C-303.89710693 782.12200928 -303.89187012 783.2479248 -303.88647461 784.40795898 C-304 787 -304 787 -305 788 C-306.99964982 788.08758003 -309.0023611 788.10696576 -311.00390625 788.09765625 C-312.09775635 788.09515869 -313.19160645 788.09266113 -314.31860352 788.09008789 C-316.41933228 788.07643188 -316.41933228 788.07643188 -318.5625 788.0625 C-322.996875 788.041875 -327.43125 788.02125 -332 788 C-332 797.24 -332 806.48 -332 816 C-341.57 816 -351.14 816 -361 816 C-361 825.24 -361 834.48 -361 844 C-370.24 844 -379.48 844 -389 844 C-389 853.24 -389 862.48 -389 872 C-397.91 872 -406.82 872 -416 872 C-416 881.24 -416 890.48 -416 900 C-425.57 900 -435.14 900 -445 900 C-445 909.24 -445 918.48 -445 928 C-454.24 928 -463.48 928 -473 928 C-473 937.24 -473 946.48 -473 956 C-481.91 956 -490.82 956 -500 956 C-500 965.24 -500 974.48 -500 984 C-509.57 984 -519.14 984 -529 984 C-529 993.24 -529 1002.48 -529 1012 C-538.24 1012 -547.48 1012 -557 1012 C-557 1030.48 -557 1048.96 -557 1068 C-565.91 1068 -574.82 1068 -584 1068 C-584 1077.24 -584 1086.48 -584 1096 C-593.57 1096 -603.14 1096 -613 1096 C-613 1105.24 -613 1114.48 -613 1124 C-622.24 1124 -631.48 1124 -641 1124 C-641 1133.24 -641 1142.48 -641 1152 C-649.91 1152 -658.82 1152 -668 1152 C-667.96040599 1160.84072863 -667.96040599 1160.84072863 -667.90991211 1169.68139648 C-667.90616577 1171.32217163 -667.90616577 1171.32217163 -667.90234375 1172.99609375 C-667.89710693 1174.12200928 -667.89187012 1175.2479248 -667.88647461 1176.40795898 C-668 1179 -668 1179 -669 1180 C-688.8 1180 -708.6 1180 -729 1180 C-729 1123.24 -729 1066.48 -729 1008 C-719.76 1008 -710.52 1008 -701 1008 C-701 989.52 -701 971.04 -701 952 C-691.76 952 -682.52 952 -673 952 C-673 933.52 -673 915.04 -673 896 C-663.76 896 -654.52 896 -645 896 C-645 877.52 -645 859.04 -645 840 C-635.76 840 -626.52 840 -617 840 C-617 821.52 -617 803.04 -617 784 C-607.76 784 -598.52 784 -589 784 C-589 765.52 -589 747.04 -589 728 C-579.76 728 -570.52 728 -561 728 C-561 718.76 -561 709.52 -561 700 C-551.76 700 -542.52 700 -533 700 C-533 681.52 -533 663.04 -533 644 C-523.76 644 -514.52 644 -505 644 C-505 634.76 -505 625.52 -505 616 C-495.76 616 -486.52 616 -477 616 C-477 598.84 -477 581.68 -477 564 C-484.59 564 -492.18 564 -500 564 C-500 573.24 -500 582.48 -500 592 C-509.57 592 -519.14 592 -529 592 C-529 601.24 -529 610.48 -529 620 C-538.24 620 -547.48 620 -557 620 C-557 629.24 -557 638.48 -557 648 C-565.91 648 -574.82 648 -584 648 C-584 657.24 -584 666.48 -584 676 C-593.57 676 -603.14 676 -613 676 C-613 685.24 -613 694.48 -613 704 C-622.24 704 -631.48 704 -641 704 C-641 713.24 -641 722.48 -641 732 C-649.91 732 -658.82 732 -668 732 C-667.96040599 740.84072863 -667.96040599 740.84072863 -667.90991211 749.68139648 C-667.90616577 751.32217163 -667.90616577 751.32217163 -667.90234375 752.99609375 C-667.89710693 754.12200928 -667.89187012 755.2479248 -667.88647461 756.40795898 C-668 759 -668 759 -669 760 C-671.07262076 760.08767112 -673.14820294 760.10695873 -675.22265625 760.09765625 C-676.35711182 760.09515869 -677.49156738 760.09266113 -678.66040039 760.09008789 C-680.8394397 760.07643188 -680.8394397 760.07643188 -683.0625 760.0625 C-689.9615625 760.0315625 -689.9615625 760.0315625 -697 760 C-697 769.24 -697 778.48 -697 788 C-706.24 788 -715.48 788 -725 788 C-725 797.24 -725 806.48 -725 816 C-734.24 816 -743.48 816 -753 816 C-753 825.24 -753 834.48 -753 844 C-762.24 844 -771.48 844 -781 844 C-781 853.24 -781 862.48 -781 872 C-790.24 872 -799.48 872 -809 872 C-809 881.24 -809 890.48 -809 900 C-818.24 900 -827.48 900 -837 900 C-837 909.24 -837 918.48 -837 928 C-846.24 928 -855.48 928 -865 928 C-865 937.24 -865 946.48 -865 956 C-874.24 956 -883.48 956 -893 956 C-893 965.24 -893 974.48 -893 984 C-911.48 984 -929.96 984 -949 984 C-949 993.24 -949 1002.48 -949 1012 C-958.24 1012 -967.48 1012 -977 1012 C-977 1021.24 -977 1030.48 -977 1040 C-986.24 1040 -995.48 1040 -1005 1040 C-1005 1049.24 -1005 1058.48 -1005 1068 C-1023.48 1068 -1041.96 1068 -1061 1068 C-1061 1077.24 -1061 1086.48 -1061 1096 C-1070.24 1096 -1079.48 1096 -1089 1096 C-1089 1105.24 -1089 1114.48 -1089 1124 C-1107.48 1124 -1125.96 1124 -1145 1124 C-1145 1133.24 -1145 1142.48 -1145 1152 C-1163.48 1152 -1181.96 1152 -1201 1152 C-1201 1161.24 -1201 1170.48 -1201 1180 C-1228.72 1180 -1256.44 1180 -1285 1180 C-1285 1189.24 -1285 1198.48 -1285 1208 C-1323.28 1208 -1361.56 1208 -1401 1208 C-1401 1198.76 -1401 1189.52 -1401 1180 C-1419.48 1180 -1437.96 1180 -1457 1180 C-1457 1170.76 -1457 1161.52 -1457 1152 C-1466.24 1152 -1475.48 1152 -1485 1152 C-1485 1113.72 -1485 1075.44 -1485 1036 C-1475.76 1036 -1466.52 1036 -1457 1036 C-1457 1026.76 -1457 1017.52 -1457 1008 C-1427.96 1008 -1398.92 1008 -1369 1008 C-1369 1037.04 -1369 1066.08 -1369 1096 C-1396.72 1096 -1424.44 1096 -1453 1096 C-1453 1103.92 -1453 1111.84 -1453 1120 C-1443.76 1120 -1434.52 1120 -1425 1120 C-1425 1129.24 -1425 1138.48 -1425 1148 C-1361.64 1148 -1298.28 1148 -1233 1148 C-1233 1138.76 -1233 1129.52 -1233 1120 C-1214.52 1120 -1196.04 1120 -1177 1120 C-1177 1110.76 -1177 1101.52 -1177 1092 C-1158.52 1092 -1140.04 1092 -1121 1092 C-1121 1082.76 -1121 1073.52 -1121 1064 C-1111.76 1064 -1102.52 1064 -1093 1064 C-1093 1054.76 -1093 1045.52 -1093 1036 C-1083.76 1036 -1074.52 1036 -1065 1036 C-1065 1026.76 -1065 1017.52 -1065 1008 C-1046.52 1008 -1028.04 1008 -1009 1008 C-1009 998.76 -1009 989.52 -1009 980 C-999.76 980 -990.52 980 -981 980 C-981 970.76 -981 961.52 -981 952 C-971.76 952 -962.52 952 -953 952 C-953 942.76 -953 933.52 -953 924 C-943.76 924 -934.52 924 -925 924 C-925 914.76 -925 905.52 -925 896 C-915.76 896 -906.52 896 -897 896 C-897 886.76 -897 877.52 -897 868 C-887.76 868 -878.52 868 -869 868 C-869 858.76 -869 849.52 -869 840 C-850.52 840 -832.04 840 -813 840 C-813 830.76 -813 821.52 -813 812 C-803.76 812 -794.52 812 -785 812 C-785 793.52 -785 775.04 -785 756 C-766.52 756 -748.04 756 -729 756 C-729 746.76 -729 737.52 -729 728 C-719.76 728 -710.52 728 -701 728 C-701 709.52 -701 691.04 -701 672 C-691.76 672 -682.52 672 -673 672 C-673 662.76 -673 653.52 -673 644 C-663.76 644 -654.52 644 -645 644 C-645 634.76 -645 625.52 -645 616 C-635.76 616 -626.52 616 -617 616 C-617 606.76 -617 597.52 -617 588 C-607.76 588 -598.52 588 -589 588 C-589 578.76 -589 569.52 -589 560 C-579.76 560 -570.52 560 -561 560 C-561 550.76 -561 541.52 -561 532 C-551.76 532 -542.52 532 -533 532 C-533 522.76 -533 513.52 -533 504 C-523.76 504 -514.52 504 -505 504 C-505 494.76 -505 485.52 -505 476 C-495.76 476 -486.52 476 -477 476 C-477 466.76 -477 457.52 -477 448 C-467.76 448 -458.52 448 -449 448 C-449 438.76 -449 429.52 -449 420 C-439.76 420 -430.52 420 -421 420 C-421 410.76 -421 401.52 -421 392 C-411.76 392 -402.52 392 -393 392 C-393 382.76 -393 373.52 -393 364 C-383.76 364 -374.52 364 -365 364 C-365 354.76 -365 345.52 -365 336 C-355.76 336 -346.52 336 -337 336 C-337 326.76 -337 317.52 -337 308 C-327.76 308 -318.52 308 -309 308 C-309 298.76 -309 289.52 -309 280 C-299.76 280 -290.52 280 -281 280 C-281 270.76 -281 261.52 -281 252 C-271.76 252 -262.52 252 -253 252 C-253.03959401 243.15927137 -253.03959401 243.15927137 -253.09008789 234.31860352 C-253.09258545 233.22475342 -253.09508301 232.13090332 -253.09765625 231.00390625 C-253.10289307 229.87799072 -253.10812988 228.7520752 -253.11352539 227.59204102 C-253 225 -253 225 -252 224 C-250.00035018 223.91241997 -247.9976389 223.89303424 -245.99609375 223.90234375 C-244.90224365 223.90484131 -243.80839355 223.90733887 -242.68139648 223.90991211 C-241.28091064 223.91901611 -239.8804248 223.92812012 -238.4375 223.9375 C-234.003125 223.958125 -229.56875 223.97875 -225 224 C-225 214.76 -225 205.52 -225 196 C-215.76 196 -206.52 196 -197 196 C-197 186.76 -197 177.52 -197 168 C-187.43 168 -177.86 168 -168 168 C-168 158.76 -168 149.52 -168 140 C-159.09 140 -150.18 140 -141 140 C-141 130.76 -141 121.52 -141 112 C-131.76 112 -122.52 112 -113 112 C-113 102.76 -113 93.52 -113 84 C-103.43 84 -93.86 84 -84 84 C-84 74.76 -84 65.52 -84 56 C-75.09 56 -66.18 56 -57 56 C-57 46.76 -57 37.52 -57 28 C-38.19 28 -19.38 28 0 28 C0 18.76 0 9.52 0 0 Z " fill="#000000" transform="translate(1554,150)"/>
<path d="M0 0 C45.54 0 91.08 0 138 0 C138 4.95 138 9.9 138 15 C152.85 15 167.7 15 183 15 C183 19.95 183 24.9 183 30 C187.95 30 192.9 30 198 30 C198 60.36 198 90.72 198 122 C193.05 122 188.1 122 183 122 C183 131.9 183 141.8 183 152 C178.05 152 173.1 152 168 152 C168 156.95 168 161.9 168 167 C163.05 167 158.1 167 153 167 C153 171.95 153 176.9 153 182 C148.05 182 143.1 182 138 182 C138 186.95 138 191.9 138 197 C133.05 197 128.1 197 123 197 C123 201.95 123 206.9 123 212 C118.05 212 113.1 212 108 212 C108 216.95 108 221.9 108 227 C103.05 227 98.1 227 93 227 C93 231.95 93 236.9 93 242 C83.1 242 73.2 242 63 242 C63 246.95 63 251.9 63 257 C53.1 257 43.2 257 33 257 C33 261.95 33 266.9 33 272 C28.05 272 23.1 272 18 272 C18 276.95 18 281.9 18 287 C8.1 287 -1.8 287 -12 287 C-12 291.95 -12 296.9 -12 302 C-21.9 302 -31.8 302 -42 302 C-42 306.95 -42 311.9 -42 317 C-51.9 317 -61.8 317 -72 317 C-72 321.95 -72 326.9 -72 332 C-81.9 332 -91.8 332 -102 332 C-102 336.95 -102 341.9 -102 347 C-116.85 347 -131.7 347 -147 347 C-147 351.95 -147 356.9 -147 362 C-156.9 362 -166.8 362 -177 362 C-177 366.95 -177 371.9 -177 377 C-191.85 377 -206.7 377 -222 377 C-222 381.95 -222 386.9 -222 392 C-231.9 392 -241.8 392 -252 392 C-252 396.95 -252 401.9 -252 407 C-266.85 407 -281.7 407 -297 407 C-297 411.95 -297 416.9 -297 422 C-311.85 422 -326.7 422 -342 422 C-342 426.95 -342 431.9 -342 437 C-351.9 437 -361.8 437 -372 437 C-372 446.9 -372 456.8 -372 467 C-376.95 467 -381.9 467 -387 467 C-387 476.9 -387 486.8 -387 497 C-391.95 497 -396.9 497 -402 497 C-402 506.57 -402 516.14 -402 526 C-406.95 526 -411.9 526 -417 526 C-417 545.8 -417 565.6 -417 586 C-421.62 586 -426.24 586 -431 586 C-431 599.86 -431 613.72 -431 628 C-426.38 628 -421.76 628 -417 628 C-417 642.85 -417 657.7 -417 673 C-412.05 673 -407.1 673 -402 673 C-402 682.9 -402 692.8 -402 703 C-392.1 703 -382.2 703 -372 703 C-372 707.95 -372 712.9 -372 718 C-362.1 718 -352.2 718 -342 718 C-342 722.95 -342 727.9 -342 733 C-303.39 733 -264.78 733 -225 733 C-225 728.05 -225 723.1 -225 718 C-205.2 718 -185.4 718 -165 718 C-165 713.38 -165 708.76 -165 704 C-164 703 -164 703 -161.22436523 702.88647461 C-160.01466064 702.89171143 -158.80495605 702.89694824 -157.55859375 702.90234375 C-155.60083008 702.90717773 -155.60083008 702.90717773 -153.60351562 702.91210938 C-152.2148431 702.92046599 -150.82617123 702.92893095 -149.4375 702.9375 C-148.04492344 702.94251334 -146.65234519 702.94707653 -145.25976562 702.95117188 C-141.8398013 702.96300566 -138.41992156 702.9794912 -135 703 C-135.01160156 702.00097656 -135.02320313 701.00195312 -135.03515625 699.97265625 C-135.04869141 698.03712891 -135.04869141 698.03712891 -135.0625 696.0625 C-135.07990234 694.13083984 -135.07990234 694.13083984 -135.09765625 692.16015625 C-135 689 -135 689 -134 688 C-132.61839885 687.9072167 -131.23211962 687.88252957 -129.84741211 687.88647461 C-128.96657455 687.88655014 -128.085737 687.88662567 -127.1782074 687.88670349 C-126.22092239 687.89186478 -125.26363739 687.89702606 -124.27734375 687.90234375 C-123.30213272 687.9037587 -122.32692169 687.90517365 -121.32215881 687.90663147 C-118.19390857 687.91224867 -115.06572877 687.92480407 -111.9375 687.9375 C-109.82226666 687.94251278 -107.70703219 687.94707607 -105.59179688 687.95117188 C-100.39450393 687.96222369 -95.19726392 687.97949984 -90 688 C-90 683.05 -90 678.1 -90 673 C-80.1 673 -70.2 673 -60 673 C-60 668.05 -60 663.1 -60 658 C-50.1 658 -40.2 658 -30 658 C-30 653.05 -30 648.1 -30 643 C-25.05 643 -20.1 643 -15 643 C-15 638.05 -15 633.1 -15 628 C-5.1 628 4.8 628 15 628 C15 623.05 15 618.1 15 613 C19.95 613 24.9 613 30 613 C30 608.05 30 603.1 30 598 C39.9 598 49.8 598 60 598 C60 593.38 60 588.76 60 584 C64.95 584 69.9 584 75 584 C75 579.05 75 574.1 75 569 C79.95 569 84.9 569 90 569 C90 564.05 90 559.1 90 554 C94.95 554 99.9 554 105 554 C105 549.05 105 544.1 105 539 C109.95 539 114.9 539 120 539 C120 534.05 120 529.1 120 524 C124.95 524 129.9 524 135 524 C135 519.05 135 514.1 135 509 C139.95 509 144.9 509 150 509 C150 504.05 150 499.1 150 494 C154.95 494 159.9 494 165 494 C165 489.05 165 484.1 165 479 C169.95 479 174.9 479 180 479 C180 474.05 180 469.1 180 464 C184.95 464 189.9 464 195 464 C195 459.05 195 454.1 195 449 C199.95 449 204.9 449 210 449 C210 444.05 210 439.1 210 434 C214.95 434 219.9 434 225 434 C225 429.05 225 424.1 225 419 C229.95 419 234.9 419 240 419 C240 414.05 240 409.1 240 404 C244.95 404 249.9 404 255 404 C255 399.05 255 394.1 255 389 C259.95 389 264.9 389 270 389 C270 384.05 270 379.1 270 374 C274.95 374 279.9 374 285 374 C285 364.1 285 354.2 285 344 C289.95 344 294.9 344 300 344 C300 339.05 300 334.1 300 329 C302.64 329 305.28 329 308 329 C308 325.7 308 322.4 308 319 C286.22 319 264.44 319 242 319 C242 312.73 242 306.46 242 300 C233.09 300 224.18 300 215 300 C215 293.73 215 287.46 215 281 C233.15 281 251.3 281 270 281 C270 274.73 270 268.46 270 262 C288.81 262 307.62 262 327 262 C327 255.73 327 249.46 327 243 C339.21 243 351.42 243 364 243 C364 236.73 364 230.46 364 224 C376.54 224 389.08 224 402 224 C402 218.06 402 212.12 402 206 C408.27 206 414.54 206 421 206 C421 199.73 421 193.46 421 187 C426.94 187 432.88 187 439 187 C439 180.73 439 174.46 439 168 C445.27 168 451.54 168 458 168 C458 149.52 458 131.04 458 112 C464.27 112 470.54 112 477 112 C477 93.52 477 75.04 477 56 C482.94 56 488.88 56 495 56 C495 37.52 495 19.04 495 0 C501.6 0 508.2 0 515 0 C515 7.59 515 15.18 515 23 C521.27 23 527.54 23 534 23 C534 46.1 534 69.2 534 93 C540.27 93 546.54 93 553 93 C553 111.48 553 129.96 553 149 C558.94 149 564.88 149 571 149 C572 150 572 150 572.11352539 151.76586914 C572.10567017 152.88916626 572.10567017 152.88916626 572.09765625 154.03515625 C572.09515869 154.76355713 572.09266113 155.49195801 572.09008789 156.24243164 C572.07643188 157.63836548 572.07643188 157.63836548 572.0625 159.0625 C572.041875 162.011875 572.02125 164.96125 572 168 C577.94 168 583.88 168 590 168 C590 174.27 590 180.54 590 187 C596.27 187 602.54 187 609 187 C609 193.27 609 199.54 609 206 C615.27 206 621.54 206 628 206 C628 212.27 628 218.54 628 225 C633.94 225 639.88 225 646 225 C646 230.94 646 236.88 646 243 C658.54 243 671.08 243 684 243 C684 249.27 684 255.54 684 262 C702.48 262 720.96 262 740 262 C740 268.27 740 274.54 740 281 C764.75 281 789.5 281 815 281 C815 287.27 815 293.54 815 300 C801.14 300 787.28 300 773 300 C773 306.27 773 312.54 773 319 C755.84 319 738.68 319 721 319 C721 325.27 721 331.54 721 338 C702.52 338 684.04 338 665 338 C665 344.27 665 350.54 665 357 C652.46 357 639.92 357 627 357 C627 362.94 627 368.88 627 375 C621.06 375 615.12 375 609 375 C609 381.27 609 387.54 609 394 C602.73 394 596.46 394 590 394 C590 400.27 590 406.54 590 413 C583.73 413 577.46 413 571 413 C571 425.21 571 437.42 571 450 C565.06 450 559.12 450 553 450 C553 468.48 553 486.96 553 506 C546.73 506 540.46 506 534 506 C534 524.81 534 543.62 534 563 C527.73 563 521.46 563 515 563 C515 575.21 515 587.42 515 600 C508.4 600 501.8 600 495 600 C495 575.25 495 550.5 495 525 C489.06 525 483.12 525 477 525 C476 524 476 524 475.87974548 521.79173279 C475.8830764 520.32946007 475.8830764 520.32946007 475.88647461 518.83764648 C475.88655014 517.73658066 475.88662567 516.63551483 475.88670349 515.50108337 C475.89186478 514.3031868 475.89702606 513.10529022 475.90234375 511.87109375 C475.9037587 510.65172623 475.90517365 509.4323587 475.90663147 508.17604065 C475.91225033 504.2631693 475.92480604 500.35035419 475.9375 496.4375 C475.94251257 493.79231853 475.9470759 491.14713617 475.95117188 488.50195312 C475.96222589 482.00128026 475.97950317 475.50064968 476 469 C470.06 469 464.12 469 458 469 C458 456.46 458 443.92 458 431 C451.73 431 445.46 431 439 431 C439 425.06 439 419.12 439 413 C432.73 413 426.46 413 420 413 C420 406.73 420 400.46 420 394 C414.06 394 408.12 394 402 394 C402 387.73 402 381.46 402 375 C395.73 375 389.46 375 383 375 C383 368.73 383 362.46 383 356 C376.73 356 370.46 356 364 356 C364 350.06 364 344.12 364 338 C358.39 338 352.78 338 347 338 C347 340.97 347 343.94 347 347 C342.38 347 337.76 347 333 347 C333 351.95 333 356.9 333 362 C328.05 362 323.1 362 318 362 C318 366.95 318 371.9 318 377 C313.05 377 308.1 377 303 377 C303 386.9 303 396.8 303 407 C298.05 407 293.1 407 288 407 C288 411.95 288 416.9 288 422 C283.05 422 278.1 422 273 422 C273 426.95 273 431.9 273 437 C268.05 437 263.1 437 258 437 C258 441.95 258 446.9 258 452 C253.05 452 248.1 452 243 452 C243 456.95 243 461.9 243 467 C238.05 467 233.1 467 228 467 C228 471.95 228 476.9 228 482 C223.05 482 218.1 482 213 482 C213 486.95 213 491.9 213 497 C208.05 497 203.1 497 198 497 C198 501.95 198 506.9 198 512 C193.05 512 188.1 512 183 512 C183 516.62 183 521.24 183 526 C178.05 526 173.1 526 168 526 C168 530.95 168 535.9 168 541 C163.05 541 158.1 541 153 541 C153 545.95 153 550.9 153 556 C148.05 556 143.1 556 138 556 C138 560.95 138 565.9 138 571 C133.05 571 128.1 571 123 571 C123 575.95 123 580.9 123 586 C118.05 586 113.1 586 108 586 C108 590.95 108 595.9 108 601 C98.1 601 88.2 601 78 601 C78 605.95 78 610.9 78 616 C73.05 616 68.1 616 63 616 C63 620.95 63 625.9 63 631 C58.05 631 53.1 631 48 631 C48 635.95 48 640.9 48 646 C38.1 646 28.2 646 18 646 C18 650.95 18 655.9 18 661 C8.1 661 -1.8 661 -12 661 C-12 665.95 -12 670.9 -12 676 C-16.95 676 -21.9 676 -27 676 C-27 680.95 -27 685.9 -27 691 C-36.9 691 -46.8 691 -57 691 C-57 695.95 -57 700.9 -57 706 C-66.9 706 -76.8 706 -87 706 C-87 710.95 -87 715.9 -87 721 C-101.85 721 -116.7 721 -132 721 C-132 725.95 -132 730.9 -132 736 C-146.85 736 -161.7 736 -177 736 C-177 740.95 -177 745.9 -177 751 C-201.75 751 -226.5 751 -252 751 C-252 755.95 -252 760.9 -252 766 C-292.26 766 -332.52 766 -374 766 C-374 761.05 -374 756.1 -374 751 C-393.8 751 -413.6 751 -434 751 C-434 746.05 -434 741.1 -434 736 C-438.95 736 -443.9 736 -449 736 C-449 731.05 -449 726.1 -449 721 C-458.9 721 -468.8 721 -479 721 C-479 716.05 -479 711.1 -479 706 C-483.95 706 -488.9 706 -494 706 C-494 696.1 -494 686.2 -494 676 C-498.95 676 -503.9 676 -509 676 C-509 666.1 -509 656.2 -509 646 C-513.95 646 -518.9 646 -524 646 C-524 590.89 -524 535.78 -524 479 C-519.05 479 -514.1 479 -509 479 C-509 464.15 -509 449.3 -509 434 C-504.05 434 -499.1 434 -494 434 C-494 424.1 -494 414.2 -494 404 C-489.05 404 -484.1 404 -479 404 C-479 389.15 -479 374.3 -479 359 C-474.05 359 -469.1 359 -464 359 C-464 349.1 -464 339.2 -464 329 C-459.05 329 -454.1 329 -449 329 C-449 324.05 -449 319.1 -449 314 C-444.05 314 -439.1 314 -434 314 C-434 304.1 -434 294.2 -434 284 C-429.05 284 -424.1 284 -419 284 C-419 279.05 -419 274.1 -419 269 C-414.05 269 -409.1 269 -404 269 C-404 264.05 -404 259.1 -404 254 C-399.05 254 -394.1 254 -389 254 C-389 249.05 -389 244.1 -389 239 C-384.05 239 -379.1 239 -374 239 C-374 234.05 -374 229.1 -374 224 C-369.05 224 -364.1 224 -359 224 C-359 219.05 -359 214.1 -359 209 C-354.05 209 -349.1 209 -344 209 C-344 204.05 -344 199.1 -344 194 C-339.05 194 -334.1 194 -329 194 C-329 189.05 -329 184.1 -329 179 C-324.05 179 -319.1 179 -314 179 C-314 174.05 -314 169.1 -314 164 C-309.38 164 -304.76 164 -300 164 C-300.0309375 160.5659375 -300.0309375 160.5659375 -300.0625 157.0625 C-300.08370868 154.70833668 -300.07271741 152.35313555 -300 150 C-299 149 -299 149 -296.22436523 148.88647461 C-295.01466064 148.89171143 -293.80495605 148.89694824 -292.55859375 148.90234375 C-291.25341797 148.90556641 -289.94824219 148.90878906 -288.60351562 148.91210938 C-287.2148431 148.92046599 -285.82617123 148.92893095 -284.4375 148.9375 C-283.04492344 148.94251334 -281.65234519 148.94707653 -280.25976562 148.95117188 C-276.8398013 148.96300566 -273.41992156 148.9794912 -270 149 C-270.01160156 148.00097656 -270.02320313 147.00195312 -270.03515625 145.97265625 C-270.04417969 144.68230469 -270.05320312 143.39195312 -270.0625 142.0625 C-270.07410156 140.77472656 -270.08570313 139.48695313 -270.09765625 138.16015625 C-270 135 -270 135 -269 134 C-266.64686445 133.92728259 -264.29166332 133.91629132 -261.9375 133.9375 C-260.64714844 133.94652344 -259.35679687 133.95554687 -258.02734375 133.96484375 C-256.52880859 133.98224609 -256.52880859 133.98224609 -255 134 C-255.01160156 133.00097656 -255.02320313 132.00195312 -255.03515625 130.97265625 C-255.04869141 129.03712891 -255.04869141 129.03712891 -255.0625 127.0625 C-255.07410156 125.77472656 -255.08570313 124.48695313 -255.09765625 123.16015625 C-255 120 -255 120 -254 119 C-251.64686445 118.92728259 -249.29166332 118.91629132 -246.9375 118.9375 C-245.00197266 118.95103516 -245.00197266 118.95103516 -243.02734375 118.96484375 C-242.02832031 118.97644531 -241.02929688 118.98804688 -240 119 C-240.01160156 118.00097656 -240.02320313 117.00195312 -240.03515625 115.97265625 C-240.04417969 114.68230469 -240.05320312 113.39195312 -240.0625 112.0625 C-240.07410156 110.77472656 -240.08570313 109.48695313 -240.09765625 108.16015625 C-240 105 -240 105 -239 104 C-236.85441173 103.91224395 -234.70595579 103.89304781 -232.55859375 103.90234375 C-231.25341797 103.90556641 -229.94824219 103.90878906 -228.60351562 103.91210938 C-227.2148431 103.92046599 -225.82617123 103.92893095 -224.4375 103.9375 C-223.04492344 103.94251334 -221.65234519 103.94707653 -220.25976562 103.95117188 C-216.83982549 103.96300558 -213.4199075 103.98094169 -210 104 C-210 99.05 -210 94.1 -210 89 C-205.05 89 -200.1 89 -195 89 C-195 84.05 -195 79.1 -195 74 C-185.1 74 -175.2 74 -165 74 C-165 69.38 -165 64.76 -165 60 C-155.1 60 -145.2 60 -135 60 C-135 55.05 -135 50.1 -135 45 C-125.1 45 -115.2 45 -105 45 C-105 40.05 -105 35.1 -105 30 C-90.15 30 -75.3 30 -60 30 C-60 25.05 -60 20.1 -60 15 C-40.2 15 -20.4 15 0 15 C0 10.05 0 5.1 0 0 Z M63 17 C63 21.95 63 26.9 63 32 C48.15 32 33.3 32 18 32 C18 36.95 18 41.9 18 47 C8.1 47 -1.8 47 -12 47 C-12 51.95 -12 56.9 -12 62 C-21.9 62 -31.8 62 -42 62 C-42 66.95 -42 71.9 -42 77 C-46.95 77 -51.9 77 -57 77 C-57 81.95 -57 86.9 -57 92 C-61.95 92 -66.9 92 -72 92 C-72 96.95 -72 101.9 -72 107 C-81.9 107 -91.8 107 -102 107 C-102 111.95 -102 116.9 -102 122 C-106.95 122 -111.9 122 -117 122 C-117 126.95 -117 131.9 -117 137 C-121.95 137 -126.9 137 -132 137 C-132 141.95 -132 146.9 -132 152 C-136.95 152 -141.9 152 -147 152 C-147 156.95 -147 161.9 -147 167 C-151.95 167 -156.9 167 -162 167 C-162 176.9 -162 186.8 -162 197 C-166.95 197 -171.9 197 -177 197 C-177 201.95 -177 206.9 -177 212 C-181.95 212 -186.9 212 -192 212 C-192 216.95 -192 221.9 -192 227 C-196.95 227 -201.9 227 -207 227 C-207 231.95 -207 236.9 -207 242 C-211.95 242 -216.9 242 -222 242 C-222 246.95 -222 251.9 -222 257 C-226.95 257 -231.9 257 -237 257 C-237 261.95 -237 266.9 -237 272 C-241.95 272 -246.9 272 -252 272 C-252 281.9 -252 291.8 -252 302 C-256.95 302 -261.9 302 -267 302 C-267 306.95 -267 311.9 -267 317 C-271.95 317 -276.9 317 -282 317 C-282 321.95 -282 326.9 -282 332 C-286.95 332 -291.9 332 -297 332 C-297 341.9 -297 351.8 -297 362 C-301.95 362 -306.9 362 -312 362 C-312 366.95 -312 371.9 -312 377 C-316.95 377 -321.9 377 -327 377 C-327 380.96 -327 384.92 -327 389 C-318.09 389 -309.18 389 -300 389 C-300 384.05 -300 379.1 -300 374 C-285.15 374 -270.3 374 -255 374 C-255 369.05 -255 364.1 -255 359 C-245.1 359 -235.2 359 -225 359 C-225 354.05 -225 349.1 -225 344 C-210.15 344 -195.3 344 -180 344 C-180 339.05 -180 334.1 -180 329 C-170.1 329 -160.2 329 -150 329 C-150 324.05 -150 319.1 -150 314 C-140.1 314 -130.2 314 -120 314 C-120 309.05 -120 304.1 -120 299 C-110.1 299 -100.2 299 -90 299 C-90 294.05 -90 289.1 -90 284 C-80.1 284 -70.2 284 -60 284 C-60 279.05 -60 274.1 -60 269 C-50.1 269 -40.2 269 -30 269 C-30 264.05 -30 259.1 -30 254 C-25.05 254 -20.1 254 -15 254 C-15 249.05 -15 244.1 -15 239 C-5.1 239 4.8 239 15 239 C15 234.05 15 229.1 15 224 C19.95 224 24.9 224 30 224 C30 219.05 30 214.1 30 209 C34.95 209 39.9 209 45 209 C45 204.05 45 199.1 45 194 C54.9 194 64.8 194 75 194 C75 189.05 75 184.1 75 179 C79.95 179 84.9 179 90 179 C90 174.05 90 169.1 90 164 C94.95 164 99.9 164 105 164 C105 154.1 105 144.2 105 134 C109.95 134 114.9 134 120 134 C120 124.1 120 114.2 120 104 C124.95 104 129.9 104 135 104 C135 95.09 135 86.18 135 77 C130.05 77 125.1 77 120 77 C120 67.1 120 57.2 120 47 C115.05 47 110.1 47 105 47 C105 42.05 105 37.1 105 32 C95.1 32 85.2 32 75 32 C75 27.05 75 22.1 75 17 C71.04 17 67.08 17 63 17 Z M497 169 C496.67 181.21 496.34 193.42 496 206 C490.06 206.33 484.12 206.66 478 207 C478 212.94 478 218.88 478 225 C471.73 225 465.46 225 459 225 C459 231.27 459 237.54 459 244 C452.73 244 446.46 244 440 244 C440 250.27 440 256.54 440 263 C434.06 263 428.12 263 422 263 C422 268.94 422 274.88 422 281 C409.46 281 396.92 281 384 281 C384 286.94 384 292.88 384 299 C390.27 299 396.54 299 403 299 C403 305.27 403 311.54 403 318 C413.89 318 424.78 318 436 318 C436 325.92 436 333.84 436 342 C443.59 342 451.18 342 459 342 C459 347.94 459 353.88 459 360 C465.27 360 471.54 360 478 360 C478 370.89 478 381.78 478 393 C483.94 393.33 489.88 393.66 496 394 C496.33 401.26 496.66 408.52 497 416 C504.26 416 511.52 416 519 416 C519 408.41 519 400.82 519 393 C525.27 393 531.54 393 538 393 C538 386.73 538 380.46 538 374 C542.62 374 547.24 374 552 374 C552 368.06 552 362.12 552 356 C556.62 356 561.24 356 566 356 C566 351.38 566 346.76 566 342 C572.27 342 578.54 342 585 342 C585 334.08 585 326.16 585 318 C590.94 318 596.88 318 603 318 C603 311.73 603 305.46 603 299 C612.24 299 621.48 299 631 299 C631 293.06 631 287.12 631 281 C623.41 281 615.82 281 608 281 C608 275.06 608 269.12 608 263 C597.11 263 586.22 263 575 263 C575 255.08 575 247.16 575 239 C567.41 239 559.82 239 552 239 C552 233.06 552 227.12 552 221 C545.73 221 539.46 221 533 221 C533 210.11 533 199.22 533 188 C526.73 188 520.46 188 514 188 C514 181.73 514 175.46 514 169 C508.39 169 502.78 169 497 169 Z " fill="#000000" transform="translate(2042,592)"/>
</svg>
