<svg xmlns="http://www.w3.org/2000/svg" xmlns:xlink="http://www.w3.org/1999/xlink" width="3800" zoomAndPan="magnify" viewBox="0 0 2850 1124.99995" height="1500" preserveAspectRatio="xMidYMid meet" version="1.0"><defs><clipPath id="ff71020cda"><path d="M 0.5 0.601562 L 1907.1875 0.601562 L 1907.1875 1022.863281 L 0.5 1022.863281 Z M 0.5 0.601562 " clip-rule="nonzero"/></clipPath><clipPath id="5ef9cfd38d"><path d="M 1000 444.839844 L 1868 444.839844 L 1868 1022.601562 L 1000 1022.601562 Z M 1000 444.839844 " clip-rule="nonzero"/></clipPath><clipPath id="f49a66b530"><path d="M 1776.902344 445 L 2521.160156 445 L 2521.160156 1022.601562 L 1776.902344 1022.601562 Z M 1776.902344 445 " clip-rule="nonzero"/></clipPath><clipPath id="be8de90f16"><rect x="0" width="2523" y="0" height="1025"/></clipPath></defs><g transform="matrix(1, 0, 0, 1, 164, 51)"><g clip-path="url(#be8de90f16)"><g clip-path="url(#ff71020cda)"><path fill="#ff5f9f" d="M 1882.292969 53.070312 L 1882.292969 26.742188 L 1856.347656 26.742188 L 1856.347656 0.796875 L 1617.117188 0.796875 L 1617.117188 26.742188 L 1564.84375 26.742188 L 1564.84375 52.6875 L 1512.574219 52.6875 L 1512.574219 78.632812 L 1460.300781 78.632812 L 1460.300781 104.578125 L 1434.355469 104.578125 L 1434.355469 130.523438 L 1408.410156 130.523438 L 1408.410156 157.230469 L 1382.464844 157.230469 L 1382.464844 183.175781 L 1330.195312 183.175781 L 1330.195312 209.121094 L 1304.25 209.121094 L 1304.25 235.066406 L 1278.304688 235.066406 L 1278.304688 261.011719 L 1252.359375 261.011719 L 1252.359375 286.957031 L 1226.414062 286.957031 L 1226.414062 313.664062 L 1200.46875 313.664062 L 1200.46875 339.609375 L 1174.523438 339.609375 L 1174.523438 365.554688 L 1148.578125 365.554688 L 1148.578125 391.5 L 1122.632812 391.5 L 1122.632812 417.445312 L 1095.542969 417.445312 L 1095.542969 443.390625 L 1069.597656 443.390625 L 1069.597656 495.664062 L 1043.652344 495.664062 L 1043.652344 521.609375 L 1017.707031 521.609375 L 1017.707031 547.554688 L 991.761719 547.554688 L 991.761719 573.5 L 965.816406 573.5 L 965.816406 599.445312 L 939.109375 599.445312 L 939.109375 625.390625 L 913.164062 625.390625 L 913.164062 677.660156 L 887.21875 677.660156 L 887.21875 703.605469 L 865.851562 703.605469 L 865.851562 656.296875 L 891.796875 656.296875 L 891.796875 604.023438 L 917.742188 604.023438 L 917.742188 525.804688 L 943.6875 525.804688 L 943.6875 473.535156 L 969.632812 473.535156 L 969.632812 395.316406 L 995.578125 395.316406 L 995.578125 318.242188 L 1021.523438 318.242188 L 1021.523438 214.082031 L 1047.46875 214.082031 L 1047.46875 135.863281 L 1073.414062 135.863281 L 1073.414062 83.59375 L 1099.359375 83.59375 L 1099.359375 52.6875 L 1042.507812 52.6875 L 1042.507812 104.960938 L 1016.5625 104.960938 L 1016.5625 130.90625 L 995.195312 130.90625 L 995.195312 104.960938 L 939.109375 104.960938 L 939.109375 130.90625 L 886.835938 130.90625 L 886.835938 157.230469 L 813.199219 157.230469 L 813.199219 131.285156 L 760.925781 131.285156 L 760.925781 105.339844 L 682.707031 105.339844 L 682.707031 79.394531 L 630.4375 79.394531 L 630.4375 53.449219 L 552.21875 53.449219 L 552.21875 26.742188 L 365.644531 26.742188 L 365.644531 52.6875 L 287.425781 52.6875 L 287.425781 78.632812 L 235.152344 78.632812 L 235.152344 104.578125 L 209.207031 104.578125 L 209.207031 130.523438 L 183.261719 130.523438 L 183.261719 157.230469 L 156.9375 157.230469 L 156.9375 235.449219 L 130.992188 235.449219 L 130.992188 292.300781 L 156.9375 292.300781 L 156.9375 370.515625 L 182.882812 370.515625 L 182.882812 396.460938 L 208.828125 396.460938 L 208.828125 422.40625 L 234.773438 422.40625 L 234.773438 448.351562 L 448.058594 448.351562 L 448.058594 422.40625 L 500.328125 422.40625 L 500.328125 396.460938 L 526.273438 396.460938 L 526.273438 370.515625 L 552.21875 370.515625 L 552.21875 318.242188 L 578.164062 318.242188 L 578.164062 235.449219 L 552.21875 235.449219 L 552.21875 183.175781 L 443.097656 183.175781 L 443.097656 240.027344 L 521.3125 240.027344 L 521.3125 339.609375 L 495.367188 339.609375 L 495.367188 365.554688 L 469.804688 365.554688 L 469.804688 391.5 L 443.859375 391.5 L 443.859375 417.445312 L 266.058594 417.445312 L 266.058594 391.5 L 240.113281 391.5 L 240.113281 365.554688 L 214.167969 365.554688 L 214.167969 339.609375 L 188.222656 339.609375 L 188.222656 214.082031 L 214.167969 214.082031 L 214.167969 161.808594 L 240.113281 161.808594 L 240.113281 135.863281 L 266.058594 135.863281 L 266.058594 109.917969 L 318.332031 109.917969 L 318.332031 83.972656 L 496.132812 83.972656 L 496.132812 109.917969 L 574.347656 109.917969 L 574.347656 135.863281 L 600.292969 135.863281 L 600.292969 161.808594 L 678.511719 161.808594 L 678.511719 187.753906 L 756.726562 187.753906 L 756.726562 213.699219 L 865.851562 213.699219 L 865.851562 187.753906 L 939.109375 187.753906 L 939.109375 235.066406 L 913.164062 235.066406 L 913.164062 261.011719 L 887.21875 261.011719 L 887.21875 286.957031 L 861.273438 286.957031 L 861.273438 313.664062 L 835.328125 313.664062 L 835.328125 339.609375 L 809.382812 339.609375 L 809.382812 391.882812 L 782.671875 391.882812 L 782.671875 417.828125 L 756.726562 417.828125 L 756.726562 443.773438 L 730.785156 443.773438 L 730.785156 469.71875 L 704.839844 469.71875 L 704.839844 495.664062 L 678.894531 495.664062 L 678.894531 521.609375 L 652.949219 521.609375 L 652.949219 573.878906 L 626.238281 573.878906 L 626.238281 599.824219 L 600.292969 599.824219 L 600.292969 625.769531 L 574.347656 625.769531 L 574.347656 651.714844 L 548.402344 651.714844 L 548.402344 677.660156 L 522.457031 677.660156 L 522.457031 703.605469 L 496.511719 703.605469 L 496.511719 729.550781 L 469.804688 729.550781 L 469.804688 755.496094 L 443.859375 755.496094 L 443.859375 781.441406 L 417.914062 781.441406 L 417.914062 807.386719 L 391.96875 807.386719 L 391.96875 833.332031 L 366.023438 833.332031 L 366.023438 859.277344 L 313.371094 859.277344 L 313.371094 885.222656 L 287.425781 885.222656 L 287.425781 911.167969 L 261.480469 911.167969 L 261.480469 937.113281 L 182.882812 937.113281 L 182.882812 963.058594 L 83.296875 963.058594 L 83.296875 939.402344 L 57.351562 939.402344 L 57.351562 918.035156 L 109.625 918.035156 L 109.625 835.242188 L 26.445312 835.242188 L 26.445312 861.1875 L 0.5 861.1875 L 0.5 943.980469 L 26.445312 943.980469 L 26.445312 969.925781 L 52.390625 969.925781 L 52.390625 995.871094 L 239.730469 995.871094 L 239.730469 969.925781 L 292.003906 969.925781 L 292.003906 943.980469 L 317.949219 943.980469 L 317.949219 918.035156 L 370.222656 918.035156 L 370.222656 892.089844 L 396.167969 892.089844 L 396.167969 866.144531 L 422.113281 866.144531 L 422.113281 840.199219 L 448.058594 840.199219 L 448.058594 813.492188 L 474.003906 813.492188 L 474.003906 787.546875 L 499.945312 787.546875 L 499.945312 761.601562 L 525.890625 761.601562 L 525.890625 735.65625 L 551.835938 735.65625 L 551.835938 709.710938 L 577.78125 709.710938 L 577.78125 683.765625 L 603.726562 683.765625 L 603.726562 657.820312 L 629.671875 657.820312 L 629.671875 631.875 L 655.617188 631.875 L 655.617188 605.929688 L 681.5625 605.929688 L 681.5625 579.984375 L 707.507812 579.984375 L 707.507812 554.039062 L 733.453125 554.039062 L 733.453125 501.769531 L 759.398438 501.769531 L 759.398438 475.824219 L 785.34375 475.824219 L 785.34375 449.878906 L 811.289062 449.878906 L 811.289062 423.933594 L 837.234375 423.933594 L 837.234375 397.988281 L 858.601562 397.988281 L 858.601562 445.300781 L 832.65625 445.300781 L 832.65625 497.570312 L 806.710938 497.570312 L 806.710938 575.789062 L 782.671875 575.789062 L 782.671875 626.535156 L 756.726562 626.535156 L 756.726562 704.75 L 730.785156 704.75 L 730.785156 782.96875 L 704.839844 782.96875 L 704.839844 887.132812 L 678.894531 887.132812 L 678.894531 939.402344 L 652.949219 939.402344 L 652.949219 965.347656 L 626.238281 965.347656 L 626.238281 1022.199219 L 657.144531 1022.199219 L 657.144531 996.253906 L 683.089844 996.253906 L 683.089844 969.925781 L 709.035156 969.925781 L 709.035156 943.980469 L 734.980469 943.980469 L 734.980469 918.035156 L 760.925781 918.035156 L 760.925781 892.089844 L 786.871094 892.089844 L 786.871094 866.144531 L 812.816406 866.144531 L 812.816406 813.492188 L 838.761719 813.492188 L 838.761719 787.546875 L 864.707031 787.546875 L 864.707031 761.601562 L 890.652344 761.601562 L 890.652344 735.65625 L 916.597656 735.65625 L 916.597656 709.710938 L 942.542969 709.710938 L 942.542969 657.441406 L 968.488281 657.441406 L 968.488281 631.496094 L 994.433594 631.496094 L 994.433594 605.550781 L 1020.378906 605.550781 L 1020.378906 579.605469 L 1046.324219 579.605469 L 1046.324219 553.660156 L 1072.269531 553.660156 L 1072.269531 527.714844 L 1098.214844 527.714844 L 1098.214844 501.769531 L 1124.160156 501.769531 L 1124.160156 475.824219 L 1150.105469 475.824219 L 1150.105469 423.550781 L 1176.046875 423.550781 L 1176.046875 397.605469 L 1201.992188 397.605469 L 1201.992188 371.660156 L 1227.9375 371.660156 L 1227.9375 345.714844 L 1253.882812 345.714844 L 1253.882812 319.769531 L 1279.828125 319.769531 L 1279.828125 293.824219 L 1305.773438 293.824219 L 1305.773438 267.878906 L 1331.71875 267.878906 L 1331.71875 241.933594 L 1357.664062 241.933594 L 1357.664062 215.988281 L 1409.9375 215.988281 L 1409.9375 190.042969 L 1435.882812 190.042969 L 1435.882812 164.097656 L 1461.828125 164.097656 L 1461.828125 138.152344 L 1487.773438 138.152344 L 1487.773438 112.207031 L 1540.042969 112.207031 L 1540.042969 86.261719 L 1595.371094 86.261719 L 1595.371094 60.316406 L 1647.640625 60.316406 L 1647.640625 31.703125 L 1799.117188 31.703125 L 1799.117188 57.648438 L 1825.0625 57.648438 L 1825.0625 83.59375 L 1851.007812 83.59375 L 1851.007812 157.230469 L 1825.0625 157.230469 L 1825.0625 209.503906 L 1799.117188 209.503906 L 1799.117188 261.773438 L 1773.171875 261.773438 L 1773.171875 287.71875 L 1747.226562 287.71875 L 1747.226562 313.664062 L 1694.953125 313.664062 L 1694.953125 339.609375 L 1669.007812 339.609375 L 1669.007812 365.554688 L 1616.734375 365.554688 L 1616.734375 396.460938 L 1699.53125 396.460938 L 1699.53125 370.515625 L 1725.476562 370.515625 L 1725.476562 344.570312 L 1777.75 344.570312 L 1777.75 318.625 L 1803.695312 318.625 L 1803.695312 292.679688 L 1829.640625 292.679688 L 1829.640625 266.734375 L 1855.585938 266.734375 L 1855.585938 240.789062 L 1881.53125 240.789062 L 1881.53125 188.136719 L 1907.476562 188.136719 L 1907.476562 53.070312 Z M 834.5625 735.273438 L 834.5625 756.640625 L 813.199219 756.640625 L 813.199219 735.273438 Z M 839.523438 730.695312 L 839.523438 709.328125 L 860.890625 709.328125 L 860.890625 730.695312 Z M 886.835938 344.570312 L 886.835938 391.882812 L 865.46875 391.882812 L 865.46875 344.570312 Z M 891.414062 339.609375 L 891.414062 318.242188 L 912.78125 318.242188 L 912.78125 339.609375 Z M 991 157.230469 L 969.632812 157.230469 L 969.632812 135.863281 L 991 135.863281 Z M 943.6875 161.808594 L 965.054688 161.808594 L 965.054688 183.175781 L 943.6875 183.175781 Z M 943.6875 161.808594 " fill-opacity="1" fill-rule="nonzero"/></g><path fill="#ff5f9f" d="M 1781.191406 459.234375 L 1795.585938 459.234375 L 1795.585938 473.628906 L 1781.191406 473.628906 Z M 1781.191406 459.234375 " fill-opacity="1" fill-rule="nonzero"/><g clip-path="url(#5ef9cfd38d)"><path fill="#ff5f9f" d="M 1838.945312 690.601562 L 1838.945312 705 L 1824.550781 705 L 1824.550781 719.394531 L 1810.15625 719.394531 L 1810.15625 733.789062 L 1795.761719 733.789062 L 1795.761719 748.183594 L 1781.191406 748.183594 L 1781.191406 762.578125 L 1766.796875 762.578125 L 1766.796875 776.976562 L 1752.398438 776.976562 L 1752.398438 791.371094 L 1737.832031 791.371094 L 1737.832031 805.765625 L 1723.4375 805.765625 L 1723.4375 820.160156 L 1709.039062 820.160156 L 1709.039062 834.558594 L 1694.472656 834.558594 L 1694.472656 848.953125 L 1680.078125 848.953125 L 1680.078125 863.347656 L 1665.679688 863.347656 L 1665.679688 877.742188 L 1651.113281 877.742188 L 1651.113281 892.140625 L 1636.714844 892.140625 L 1636.714844 906.535156 L 1622.320312 906.535156 L 1622.320312 920.929688 L 1593.355469 920.929688 L 1593.355469 935.324219 L 1578.960938 935.324219 L 1578.960938 949.71875 L 1564.390625 949.71875 L 1564.390625 964.117188 L 1535.429688 964.117188 L 1535.429688 978.511719 L 1506.464844 978.511719 L 1506.464844 992.90625 L 1463.105469 992.90625 L 1463.105469 1007.300781 L 1419.746094 1007.300781 L 1419.746094 992.90625 L 1405.347656 992.90625 L 1405.347656 935.152344 L 1419.746094 935.152344 L 1419.746094 906.1875 L 1434.140625 906.1875 L 1434.140625 891.792969 L 1448.535156 891.792969 L 1448.535156 862.828125 L 1462.929688 862.828125 L 1462.929688 848.433594 L 1477.324219 848.433594 L 1477.324219 835.078125 L 1491.722656 835.078125 L 1491.722656 820.683594 L 1506.117188 820.683594 L 1506.117188 791.71875 L 1520.511719 791.71875 L 1520.511719 777.320312 L 1534.90625 777.320312 L 1534.90625 762.925781 L 1549.304688 762.925781 L 1549.304688 748.359375 L 1563.699219 748.359375 L 1563.699219 733.960938 L 1578.09375 733.960938 L 1578.09375 705 L 1592.488281 705 L 1592.488281 690.601562 L 1606.886719 690.601562 L 1606.886719 676.207031 L 1621.28125 676.207031 L 1621.28125 661.636719 L 1635.675781 661.636719 L 1635.675781 647.242188 L 1650.070312 647.242188 L 1650.070312 618.277344 L 1664.464844 618.277344 L 1664.464844 603.882812 L 1678.863281 603.882812 L 1678.863281 589.488281 L 1693.257812 589.488281 L 1693.257812 574.917969 L 1707.652344 574.917969 L 1707.652344 560.523438 L 1722.046875 560.523438 L 1722.046875 531.558594 L 1736.445312 531.558594 L 1736.445312 517.164062 L 1750.839844 517.164062 L 1750.839844 502.769531 L 1765.234375 502.769531 L 1765.234375 488.199219 L 1779.628906 488.199219 L 1779.628906 473.804688 L 1707.304688 473.804688 L 1707.304688 459.234375 L 1663.945312 459.234375 L 1663.945312 488.199219 L 1651.113281 488.199219 L 1651.113281 502.59375 L 1636.714844 502.59375 L 1636.714844 516.992188 L 1622.320312 516.992188 L 1622.320312 531.558594 L 1607.753906 531.558594 L 1607.753906 488.199219 L 1593.355469 488.199219 L 1593.355469 473.804688 L 1578.960938 473.804688 L 1578.960938 459.234375 L 1549.996094 459.234375 L 1549.996094 444.839844 L 1419.917969 444.839844 L 1419.917969 459.234375 L 1362.164062 459.234375 L 1362.164062 473.628906 L 1333.199219 473.628906 L 1333.199219 488.199219 L 1289.839844 488.199219 L 1289.839844 502.59375 L 1275.441406 502.59375 L 1275.441406 516.992188 L 1246.480469 516.992188 L 1246.480469 531.558594 L 1232.082031 531.558594 L 1232.082031 545.953125 L 1203.121094 545.953125 L 1203.121094 560.351562 L 1188.722656 560.351562 L 1188.722656 574.917969 L 1174.15625 574.917969 L 1174.15625 589.3125 L 1159.757812 589.3125 L 1159.757812 603.710938 L 1145.363281 603.710938 L 1145.363281 618.105469 L 1130.796875 618.105469 L 1130.796875 632.5 L 1116.398438 632.5 L 1116.398438 646.894531 L 1102.003906 646.894531 L 1102.003906 661.292969 L 1087.4375 661.292969 L 1087.4375 690.253906 L 1073.039062 690.253906 L 1073.039062 704.652344 L 1058.644531 704.652344 L 1058.644531 719.046875 L 1044.074219 719.046875 L 1044.074219 748.359375 L 1029.679688 748.359375 L 1029.679688 777.320312 L 1015.113281 777.320312 L 1015.113281 820.683594 L 1000.714844 820.683594 L 1000.714844 979.726562 L 1015.113281 979.726562 L 1015.113281 1008.515625 L 1044.074219 1008.515625 L 1044.074219 1022.910156 L 1145.191406 1022.910156 L 1145.191406 1008.515625 L 1188.550781 1008.515625 L 1188.550781 994.121094 L 1217.515625 994.121094 L 1217.515625 979.726562 L 1246.480469 979.726562 L 1246.480469 965.15625 L 1260.875 965.15625 L 1260.875 950.761719 L 1275.269531 950.761719 L 1275.269531 936.367188 L 1304.234375 936.367188 L 1304.234375 921.796875 L 1318.628906 921.796875 L 1318.628906 907.402344 L 1333.023438 907.402344 L 1333.023438 893.007812 L 1347.421875 893.007812 L 1347.421875 878.4375 L 1361.816406 878.4375 L 1361.816406 864.042969 L 1376.210938 864.042969 L 1376.210938 849.644531 L 1390.605469 849.644531 L 1390.605469 835.078125 L 1405.003906 835.078125 L 1405.003906 849.472656 L 1390.953125 849.472656 L 1390.953125 863.867188 L 1376.558594 863.867188 L 1376.558594 878.261719 L 1362.164062 878.261719 L 1362.164062 907.226562 L 1347.59375 907.226562 L 1347.59375 936.191406 L 1333.199219 936.191406 L 1333.199219 1008.515625 L 1362.164062 1008.515625 L 1362.164062 1022.910156 L 1477.671875 1022.910156 L 1477.671875 1008.515625 L 1521.03125 1008.515625 L 1521.03125 994.121094 L 1549.996094 994.121094 L 1549.996094 979.726562 L 1578.960938 979.726562 L 1578.960938 965.15625 L 1593.355469 965.15625 L 1593.355469 950.761719 L 1622.320312 950.761719 L 1622.320312 936.367188 L 1636.714844 936.367188 L 1636.714844 921.796875 L 1651.113281 921.796875 L 1651.113281 907.402344 L 1665.507812 907.402344 L 1665.507812 893.007812 L 1694.472656 893.007812 L 1694.472656 878.4375 L 1708.867188 878.4375 L 1708.867188 864.042969 L 1723.261719 864.042969 L 1723.261719 849.644531 L 1737.65625 849.644531 L 1737.65625 835.078125 L 1752.054688 835.078125 L 1752.054688 820.683594 L 1766.449219 820.683594 L 1766.449219 806.285156 L 1780.84375 806.285156 L 1780.84375 791.71875 L 1795.238281 791.71875 L 1795.238281 762.753906 L 1809.636719 762.753906 L 1809.636719 748.359375 L 1824.03125 748.359375 L 1824.03125 733.960938 L 1838.425781 733.960938 L 1838.425781 719.566406 L 1852.820312 719.566406 L 1852.820312 705 L 1867.214844 705 L 1867.214844 690.601562 C 1867.910156 690.601562 1838.945312 690.601562 1838.945312 690.601562 Z M 1390.953125 791.71875 L 1390.953125 806.113281 L 1376.558594 806.113281 L 1376.558594 820.507812 L 1362.164062 820.507812 L 1362.164062 834.902344 L 1347.59375 834.902344 L 1347.59375 849.300781 L 1333.199219 849.300781 L 1333.199219 863.695312 L 1318.804688 863.695312 L 1318.804688 878.089844 L 1304.234375 878.089844 L 1304.234375 892.484375 L 1289.839844 892.484375 L 1289.839844 906.882812 L 1275.441406 906.882812 L 1275.441406 921.277344 L 1260.875 921.277344 L 1260.875 935.671875 L 1231.910156 935.671875 L 1231.910156 950.066406 L 1217.515625 950.066406 L 1217.515625 964.460938 L 1188.550781 964.460938 L 1188.550781 978.859375 L 1159.757812 978.859375 L 1159.757812 993.253906 L 1116.398438 993.253906 L 1116.398438 1007.648438 L 1087.4375 1007.648438 L 1087.4375 993.253906 L 1073.039062 993.253906 L 1073.039062 978.859375 L 1058.644531 978.859375 L 1058.644531 921.796875 L 1073.039062 921.796875 L 1073.039062 878.4375 L 1087.4375 878.4375 L 1087.4375 849.472656 L 1101.832031 849.472656 L 1101.832031 820.507812 L 1116.226562 820.507812 L 1116.226562 806.113281 L 1130.796875 806.113281 L 1130.796875 777.148438 L 1145.191406 777.148438 L 1145.191406 762.753906 L 1159.585938 762.753906 L 1159.585938 748.359375 L 1173.980469 748.359375 L 1173.980469 719.394531 L 1188.378906 719.394531 L 1188.378906 705 L 1202.773438 705 L 1202.773438 690.601562 L 1217.167969 690.601562 L 1217.167969 676.207031 L 1231.5625 676.207031 L 1231.5625 661.636719 L 1245.957031 661.636719 L 1245.957031 647.242188 L 1260.355469 647.242188 L 1260.355469 632.847656 L 1274.75 632.847656 L 1274.75 618.277344 L 1289.144531 618.277344 L 1289.144531 603.882812 L 1303.539062 603.882812 L 1303.539062 589.488281 L 1317.9375 589.488281 L 1317.9375 574.917969 L 1332.332031 574.917969 L 1332.332031 560.523438 L 1346.726562 560.523438 L 1346.726562 546.128906 L 1375.691406 546.128906 L 1375.691406 531.558594 L 1390.085938 531.558594 L 1390.085938 517.164062 L 1404.480469 517.164062 L 1404.480469 502.769531 L 1434.3125 502.769531 L 1434.3125 488.199219 L 1463.277344 488.199219 L 1463.277344 473.804688 L 1506.636719 473.804688 L 1506.636719 459.234375 L 1535.601562 459.234375 L 1535.601562 473.628906 L 1564.390625 473.628906 L 1564.390625 488.199219 L 1578.789062 488.199219 L 1578.789062 560.523438 L 1564.390625 560.523438 L 1564.390625 589.488281 L 1549.996094 589.488281 L 1549.996094 618.277344 L 1535.601562 618.277344 L 1535.601562 647.242188 L 1521.03125 647.242188 L 1521.03125 661.636719 L 1506.636719 661.636719 L 1506.636719 676.035156 L 1492.242188 676.035156 L 1492.242188 690.429688 L 1477.671875 690.429688 L 1477.671875 704.824219 L 1463.277344 704.824219 L 1463.277344 733.789062 L 1448.882812 733.789062 L 1448.882812 748.183594 L 1434.3125 748.183594 L 1434.3125 762.578125 L 1419.917969 762.578125 L 1419.917969 776.976562 L 1405.523438 776.976562 L 1405.523438 791.371094 C 1405.347656 791.71875 1390.953125 791.71875 1390.953125 791.71875 Z M 1390.953125 791.71875 " fill-opacity="1" fill-rule="nonzero"/></g><g clip-path="url(#f49a66b530)"><path fill="#ff5f9f" d="M 2488.832031 686.144531 L 2488.832031 696.585938 L 2478.390625 696.585938 L 2478.390625 707.027344 L 2467.949219 707.027344 L 2467.949219 717.46875 L 2457.507812 717.46875 L 2457.507812 738.351562 L 2447.066406 738.351562 L 2447.066406 748.792969 L 2436.625 748.792969 L 2436.625 759.234375 L 2426.1875 759.234375 L 2426.1875 769.671875 L 2415.746094 769.671875 L 2415.746094 780.113281 L 2405.304688 780.113281 L 2405.304688 790.554688 L 2394.863281 790.554688 L 2394.863281 800.996094 L 2373.980469 800.996094 L 2373.980469 811.4375 L 2363.539062 811.4375 L 2363.539062 821.878906 L 2353.097656 821.878906 L 2353.097656 832.320312 L 2332.214844 832.320312 L 2332.214844 842.761719 L 2321.773438 842.761719 L 2321.773438 853.203125 L 2300.894531 853.203125 L 2300.894531 863.644531 L 2240.484375 863.644531 L 2240.484375 853.203125 L 2230.042969 853.203125 L 2230.042969 834.707031 L 2240.484375 834.707031 L 2240.484375 824.265625 L 2250.925781 824.265625 L 2250.925781 803.382812 L 2261.367188 803.382812 L 2261.367188 792.941406 L 2271.808594 792.941406 L 2271.808594 772.058594 L 2282.25 772.058594 L 2282.25 751.179688 L 2292.691406 751.179688 L 2292.691406 740.738281 L 2303.128906 740.738281 L 2303.128906 709.265625 L 2313.570312 709.265625 L 2313.570312 688.382812 L 2324.011719 688.382812 L 2324.011719 657.058594 L 2334.453125 657.058594 L 2334.453125 615.144531 L 2344.894531 615.144531 L 2344.894531 508.050781 L 2334.453125 508.050781 L 2334.453125 487.167969 L 2324.011719 487.167969 L 2324.011719 476.726562 L 2313.570312 476.726562 L 2313.570312 466.285156 L 2303.128906 466.285156 L 2303.128906 455.695312 L 2271.660156 455.695312 L 2271.660156 445.253906 L 2185.445312 445.253906 L 2185.445312 455.695312 L 2133.089844 455.695312 L 2133.089844 466.136719 L 2101.617188 466.136719 L 2101.617188 476.578125 L 2080.738281 476.578125 L 2080.738281 487.019531 L 2059.855469 487.019531 L 2059.855469 497.460938 L 2038.972656 497.460938 L 2038.972656 507.902344 L 2028.53125 507.902344 L 2028.53125 518.34375 L 2007.648438 518.34375 L 2007.648438 528.785156 L 1997.207031 528.785156 L 1997.207031 539.226562 L 1976.324219 539.226562 L 1976.324219 549.664062 L 1965.886719 549.664062 L 1965.886719 560.105469 L 1955.445312 560.105469 L 1955.445312 570.546875 L 1945.003906 570.546875 L 1945.003906 580.988281 L 1934.5625 580.988281 L 1934.5625 591.429688 L 1924.121094 591.429688 L 1924.121094 601.871094 L 1913.679688 601.871094 L 1913.679688 612.3125 L 1903.238281 612.3125 L 1903.238281 622.753906 L 1892.796875 622.753906 L 1892.796875 633.195312 L 1882.355469 633.195312 L 1882.355469 643.636719 L 1871.914062 643.636719 L 1871.914062 664.515625 L 1861.476562 664.515625 L 1861.476562 674.957031 L 1851.035156 674.957031 L 1851.035156 685.398438 L 1840.59375 685.398438 L 1840.59375 706.28125 L 1830.152344 706.28125 L 1830.152344 727.164062 L 1819.710938 727.164062 L 1819.710938 748.046875 L 1809.269531 748.046875 L 1809.269531 768.929688 L 1798.828125 768.929688 L 1798.828125 800.398438 L 1787.34375 800.398438 L 1787.34375 831.871094 L 1776.902344 831.871094 L 1776.902344 959.847656 L 1787.34375 959.847656 L 1787.34375 980.730469 L 1797.785156 980.730469 L 1797.785156 991.171875 L 1808.226562 991.171875 L 1808.226562 1001.613281 L 1818.667969 1001.613281 L 1818.667969 1012.054688 L 1850.140625 1012.054688 L 1850.140625 1022.496094 L 1988.707031 1022.496094 L 1988.707031 1012.054688 L 2020.179688 1012.054688 L 2020.179688 1001.613281 L 2041.058594 1001.613281 L 2041.058594 991.171875 L 2061.941406 991.171875 L 2061.941406 980.730469 L 2082.824219 980.730469 L 2082.824219 970.289062 L 2093.265625 970.289062 L 2093.265625 959.847656 L 2114.148438 959.847656 L 2114.148438 949.410156 L 2124.589844 949.410156 L 2124.589844 938.96875 L 2145.472656 938.96875 L 2145.472656 928.527344 L 2155.910156 928.527344 L 2155.910156 918.085938 L 2166.351562 918.085938 L 2166.351562 907.644531 L 2176.792969 907.644531 L 2176.792969 897.203125 L 2187.234375 897.203125 L 2187.234375 886.761719 L 2197.675781 886.761719 L 2197.675781 876.320312 L 2208.117188 876.320312 L 2208.117188 865.878906 L 2216.171875 865.878906 L 2216.171875 876.320312 L 2226.613281 876.320312 L 2226.613281 886.761719 L 2302.234375 886.761719 L 2302.234375 876.320312 L 2323.117188 876.320312 L 2323.117188 865.878906 L 2344 865.878906 L 2344 855.4375 L 2364.882812 855.4375 L 2364.882812 845 L 2375.324219 845 L 2375.324219 834.558594 L 2385.765625 834.558594 L 2385.765625 824.117188 L 2396.203125 824.117188 L 2396.203125 813.675781 L 2417.085938 813.675781 L 2417.085938 803.234375 L 2427.527344 803.234375 L 2427.527344 792.792969 L 2437.96875 792.792969 L 2437.96875 782.351562 L 2448.410156 782.351562 L 2448.410156 771.910156 L 2458.851562 771.910156 L 2458.851562 761.46875 L 2469.292969 761.46875 L 2469.292969 751.027344 L 2479.734375 751.027344 L 2479.734375 740.585938 L 2490.175781 740.585938 L 2490.175781 730.148438 L 2500.617188 730.148438 L 2500.617188 709.265625 L 2511.054688 709.265625 L 2511.054688 698.824219 L 2521.496094 698.824219 L 2521.496094 685.996094 L 2488.832031 685.996094 Z M 1894.4375 989.679688 L 1894.4375 979.238281 L 1883.996094 979.238281 L 1883.996094 968.800781 L 1873.554688 968.800781 L 1873.554688 947.917969 L 1863.117188 947.917969 L 1863.117188 897.949219 L 1873.554688 897.949219 L 1873.554688 856.035156 L 1883.996094 856.035156 L 1883.996094 835.152344 L 1894.4375 835.152344 L 1894.4375 814.273438 L 1904.878906 814.273438 L 1904.878906 793.390625 L 1915.320312 793.390625 L 1915.320312 782.949219 L 1925.761719 782.949219 L 1925.761719 762.066406 L 1936.203125 762.066406 L 1936.203125 751.625 L 1946.644531 751.625 L 1946.644531 741.183594 L 1957.085938 741.183594 L 1957.085938 720.300781 L 1967.527344 720.300781 L 1967.527344 709.859375 L 1977.96875 709.859375 L 1977.96875 699.421875 L 1988.40625 699.421875 L 1988.40625 688.980469 L 1998.847656 688.980469 L 1998.847656 668.097656 L 2009.289062 668.097656 L 2009.289062 657.65625 L 2019.730469 657.65625 L 2019.730469 647.214844 L 2030.171875 647.214844 L 2030.171875 636.773438 L 2040.613281 636.773438 L 2040.613281 626.332031 L 2051.054688 626.332031 L 2051.054688 615.890625 L 2061.496094 615.890625 L 2061.496094 605.449219 L 2071.9375 605.449219 L 2071.9375 595.011719 L 2082.378906 595.011719 L 2082.378906 584.570312 L 2092.816406 584.570312 L 2092.816406 574.128906 L 2103.257812 574.128906 L 2103.257812 563.6875 L 2113.699219 563.6875 L 2113.699219 553.246094 L 2124.140625 553.246094 L 2124.140625 542.804688 L 2134.582031 542.804688 L 2134.582031 532.363281 L 2145.023438 532.363281 L 2145.023438 521.921875 L 2165.90625 521.921875 L 2165.90625 511.480469 L 2176.347656 511.480469 L 2176.347656 501.039062 L 2197.230469 501.039062 L 2197.230469 490.597656 L 2218.109375 490.597656 L 2218.109375 480.160156 L 2278.519531 480.160156 L 2278.519531 490.597656 L 2299.402344 490.597656 L 2299.402344 511.480469 L 2309.84375 511.480469 L 2309.84375 532.363281 L 2320.285156 532.363281 L 2320.285156 613.65625 L 2309.84375 613.65625 L 2309.84375 645.125 L 2299.402344 645.125 L 2299.402344 676.597656 L 2288.960938 676.597656 L 2288.960938 697.480469 L 2278.519531 697.480469 L 2278.519531 707.921875 L 2268.078125 707.921875 L 2268.078125 718.363281 L 2247.195312 718.363281 L 2247.195312 728.804688 L 2236.753906 728.804688 L 2236.753906 739.246094 L 2226.3125 739.246094 L 2226.3125 749.6875 L 2215.875 749.6875 L 2215.875 770.570312 L 2205.433594 770.570312 L 2205.433594 833.363281 L 2194.992188 833.363281 L 2194.992188 843.804688 L 2184.550781 843.804688 L 2184.550781 854.246094 L 2174.109375 854.246094 L 2174.109375 864.6875 L 2163.667969 864.6875 L 2163.667969 875.128906 L 2153.226562 875.128906 L 2153.226562 885.570312 L 2142.785156 885.570312 L 2142.785156 896.011719 L 2132.34375 896.011719 L 2132.34375 906.449219 L 2121.902344 906.449219 L 2121.902344 916.890625 L 2101.023438 916.890625 L 2101.023438 927.332031 L 2090.582031 927.332031 L 2090.582031 937.773438 L 2080.140625 937.773438 L 2080.140625 948.214844 L 2059.257812 948.214844 L 2059.257812 958.65625 L 2048.816406 958.65625 L 2048.816406 969.097656 L 2027.933594 969.097656 L 2027.933594 979.539062 L 2007.050781 979.539062 L 2007.050781 989.980469 L 1986.171875 989.980469 L 1986.171875 1000.421875 L 1904.878906 1000.421875 L 1904.878906 989.980469 L 1894.4375 989.980469 Z M 1894.4375 989.679688 " fill-opacity="1" fill-rule="nonzero"/></g></g></g></svg>